<!DOCTYPE svg PUBLIC "-//W3C//DTD SVG 1.1//EN" "http://www.w3.org/Graphics/SVG/1.1/DTD/svg11.dtd">
<!-- Uploaded to: SVG Repo, www.svgrepo.com, Transformed by: SVG Repo Mixer Tools -->
<svg width="64px" height="64px" viewBox="0 0 24 24" xmlns="http://www.w3.org/2000/svg" fill="#ffffff">
<g id="SVGRepo_bgCarrier" stroke-width="0"/>
<g id="SVGRepo_tracerCarrier" stroke-linecap="round" stroke-linejoin="round"/>
<g id="SVGRepo_iconCarrier">
<path d="M18,9.5V8H17V7a2,2,0,0,0-2-2H4A2,2,0,0,0,2,7v7a2,2,0,0,0,2,2H15a2,2,0,0,0,2-2V13h1V11.5h4v-2ZM14,14H5V13h9Zm0-2H5V11h9Zm0-2H5V9h9Zm0-2H5V7h9ZM3,17H16v2H3Z"/>
<rect width="24" height="24" fill="none"/>
</g>
</svg>